<?xml version="1.0" encoding="UTF-8"?>
<svg width="336px" height="336px" viewBox="0 0 336 336" version="1.1" xmlns="http://www.w3.org/2000/svg" xmlns:xlink="http://www.w3.org/1999/xlink">
    <!-- Generator: Sketch 63.1 (92452) - https://sketch.com -->
    <title>basis-share-logo</title>
    <desc>Created with Sketch.</desc>
    <defs>
        <linearGradient x1="50%" y1="0%" x2="50%" y2="100%" id="linearGradient-1">
            <stop stop-color="#DBC087" offset="0%"></stop>
            <stop stop-color="#DB9604" offset="100%"></stop>
        </linearGradient>
    </defs>
    <g id="Page-1" stroke="none" stroke-width="1" fill="none" fill-rule="evenodd">
        <g id="Artboard" transform="translate(-404.000000, -21.000000)">
            <g id="basis-share-logo" transform="translate(413.000000, 30.000000)">
                <g id="basis-cash-logo-copy-2" stroke="url(#linearGradient-1)" stroke-width="18">
                    <path d="M81,20.4145 C32.6488,47.6865 0,99.53 0,159 C0,246.813 71.187,318 159,318 C246.813,318 318,246.813 318,159 C318,71.187 246.813,0 159,0 C130.656,0 104.045,7.4164 81,20.4145 Z" id="Shape"></path>
                </g>
                <g id="stock-earnings" transform="translate(52.000000, 86.000000)" fill="#DBAB46" fill-rule="nonzero">
                    <path d="M189.584892,40.4893899 C188.10268,39.7267446 186.320589,39.8634294 184.970856,40.8436545 L108.168551,96.6155091 L58.7062396,49.9055767 C57.0255864,48.3189174 54.4181349,48.2921383 52.705332,49.8430922 L11.4678,87.1993223 C10.5337959,88.04621 10,89.2518256 10,90.5165783 L10,141.536823 C10,144.001613 11.9855211,146 14.4344412,146 L187.565559,146 C190.014479,146 192,144.001613 192,141.536823 L192,44.4627328 C192,42.78681 191.067104,41.2525931 189.584892,40.4893899 Z M29.4683056,137.073647 L18.8688825,137.073647 L18.8688825,92.5038076 L29.4683056,82.9018411 L29.4683056,137.073647 Z M48.612897,137.073647 L38.3371881,137.073647 L38.3371881,74.8681233 L48.612897,65.5596106 L48.612897,137.073647 Z M67.7569341,137.073647 L57.4812252,137.073647 L57.4812252,60.9893178 L67.7569341,70.6928216 L67.7569341,137.073647 Z M86.9015256,137.073647 L76.6258166,137.073647 L76.6258166,79.0679724 L86.9015256,88.7720341 L86.9015256,137.073647 Z M106.244004,137.073647 L95.770408,137.073647 L95.770408,97.1477429 L104.765118,105.642284 C105.203573,106.055685 105.708545,106.360855 106.24345,106.562814 L106.24345,137.073647 L106.244004,137.073647 Z M125.586482,137.073647 L115.112332,137.073647 L115.112332,102.579987 L125.586482,94.973618 L125.586482,137.073647 L125.586482,137.073647 Z M144.929515,137.073647 L134.455365,137.073647 L134.455365,88.5332542 L144.928961,80.9274434 L144.928961,137.073647 L144.929515,137.073647 Z M164.271993,137.073647 L153.797843,137.073647 L153.797843,74.4870796 L164.271993,66.8807109 L164.271993,137.073647 Z M183.131118,137.073647 L173.14143,137.073647 L173.14143,60.440905 L183.131118,53.1865694 L183.131118,137.073647 Z" id="Shape"></path>
                    <path d="M214.290635,1.85053096 C213.490468,0.6602693 212.119786,-0.0357123796 210.697947,0.00141403172 L182.508053,0.759457772 C180.577978,0.811545573 178.93316,2.17081553 178.526125,4.05151761 C178.119091,5.93277383 179.05438,7.84727757 180.791504,8.68733189 L187.378561,11.8735538 L109.521052,67.1957854 L56.4681582,19.2617096 C53.8335575,16.8811863 49.8204902,16.866779 47.1692079,19.2273538 L2.32038668,59.1493284 C-0.542753611,61.6977518 -0.790199218,66.0764518 1.76710943,68.9290901 C4.32386201,71.7817284 8.71727267,72.0288684 11.580969,69.480445 L51.7644674,33.7116413 L104.330255,81.2051874 C105.647556,82.3948949 107.319621,83 109.000026,83 C110.407964,83 111.821462,82.5749857 113.034224,81.7133205 L195.076066,23.4187594 L195.465862,29.5551457 C195.588195,31.4746365 197.010034,33.0622062 198.909527,33.4002228 C199.156416,33.4439987 199.403862,33.4656096 199.647971,33.4656096 C201.281668,33.4656096 202.796369,32.5102972 203.476427,30.9814648 L214.640395,5.86461639 C215.223143,4.55521773 215.091357,3.0402385 214.290635,1.85053096 Z" id="Path"></path>
                </g>
            </g>
        </g>
    </g>
</svg>