<?xml version="1.0" encoding="UTF-8"?>
<svg width="336px" height="336px" viewBox="0 0 336 336" version="1.1" xmlns="http://www.w3.org/2000/svg" xmlns:xlink="http://www.w3.org/1999/xlink">
    <!-- Generator: Sketch 63.1 (92452) - https://sketch.com -->
    <title>basis-bond-logo</title>
    <desc>Created with Sketch.</desc>
    <defs>
        <linearGradient x1="50%" y1="0%" x2="50%" y2="100%" id="linearGradient-1">
            <stop stop-color="#DBC087" offset="0%"></stop>
            <stop stop-color="#DB9604" offset="100%"></stop>
        </linearGradient>
    </defs>
    <g id="Page-1" stroke="none" stroke-width="1" fill="none" fill-rule="evenodd">
        <g id="Artboard" transform="translate(-230.000000, -371.000000)">
            <g id="basis-bond-logo" transform="translate(239.000000, 380.000000)">
                <g id="basis-cash-logo-copy" stroke="url(#linearGradient-1)" stroke-width="18">
                    <path d="M81,20.4145 C32.6488,47.6865 0,99.53 0,159 C0,246.813 71.187,318 159,318 C246.813,318 318,246.813 318,159 C318,71.187 246.813,0 159,0 C130.656,0 104.045,7.4164 81,20.4145 Z" id="Shape"></path>
                </g>
                <g id="up-arrows" transform="translate(69.000000, 69.000000)" fill="#DBAB46" fill-rule="nonzero">
                    <path d="M91,93 C69.4613543,93 52,110.459981 52,132 C52,153.538646 69.4613543,171 91,171 C112.538646,171 130,153.538646 130,132 C129.975281,110.470967 112.529033,93.0247194 91,93 L91,93 Z M91,165.000106 C72.7750977,165.000106 57.9998943,150.224902 57.9998943,132 C57.9998943,113.773724 72.7750977,98.9998946 91,98.9998946 C109.224902,98.9998946 124.000106,113.773724 124.000106,132 C123.978133,150.216662 109.216662,164.978133 91,165.000106 Z" id="Shape"></path>
                    <path d="M100.000274,111.551905 L100.000274,105 L94.0005492,105 L94.0005492,110.999847 L91,110.999847 L91,105 L85.0002748,105 L85.0002748,110.999847 L76,110.999847 L76,116.999695 L81.9997256,116.999695 L81.9997256,146.998932 L76,146.998932 L76,152.998779 L85.0002748,152.998779 L85.0002748,159 L91,159 L91,152.998779 L94.0005492,152.998779 L94.0005492,159 L100.000274,159 L100.000274,152.448095 C103.583082,151.18056 105.983521,147.799552 106,143.999695 L106,137.999847 C105.99176,135.777885 105.158198,133.639693 103.659984,132 C105.158198,130.360307 105.99176,128.220741 106,126.000153 L106,120.000305 C105.983521,116.199074 103.583082,112.818066 100.000274,111.551905 L100.000274,111.551905 Z M87.9994508,116.999695 L96.9997252,116.999695 C98.657237,116.999695 100.000274,118.34276 100.000274,120.000305 L100.000274,126.000153 C100.000274,127.656325 98.657237,128.99939 96.9997252,128.99939 L87.9994508,128.99939 L87.9994508,116.999695 Z M100.000274,143.999695 C100.000274,145.655867 98.657237,146.998932 96.9997252,146.998932 L87.9994508,146.998932 L87.9994508,134.999237 L96.9997252,134.999237 C98.657237,134.999237 100.000274,136.342302 100.000274,137.999847 L100.000274,143.999695 Z" id="Shape"></path>
                    <path d="M74.0033953,22.95637 L81.98586,22.95637 L81.98586,70.9967868 C81.98586,72.6557698 83.3309408,74 84.9909744,74 L97.0086817,74 C98.6687153,74 100.013796,72.6557698 100.013796,70.9967868 L100.013796,22.95637 L107.996261,22.95637 C109.656294,22.9549953 111,21.6107654 111,19.9531565 C111,19.1559648 110.683672,18.3931352 110.119783,17.8309774 L93.1233506,0.845298018 C91.9323077,-0.281766006 90.0673484,-0.281766006 88.8763055,0.845298018 L71.8798727,17.8309774 C70.7067091,19.0033988 70.7067091,20.9042885 71.8798727,22.0767103 C72.4437617,22.6388677 73.2070746,22.95637 74.0033953,22.95637 L74.0033953,22.95637 Z M90.999828,7.21320967 L100.744101,16.9513176 L97.0086817,16.9513176 C95.3500237,16.9513176 94.0049425,18.2955478 94.0049425,19.9531565 L94.0049425,67.994948 L87.9960889,67.994948 L87.9960889,19.9531565 C87.9960889,18.2955478 86.651008,16.9513176 84.9909744,16.9513176 L81.2569305,16.9513176 L90.999828,7.21320967 Z" id="Shape"></path>
                    <path d="M19.0047703,22.95637 L26.9872341,22.95637 L26.9872341,70.9967868 C26.9872341,72.6557698 28.3323152,74 29.9909731,74 L42.0100551,74 C43.6687133,74 45.0137941,72.6557698 45.0137941,70.9967868 L45.0137941,22.95637 L52.9962579,22.95637 C54.6562914,22.9549953 56.0013721,21.6107654 56,19.9531565 C56,19.1559648 55.6836692,18.3931352 55.1211555,17.8309774 L38.1247243,0.845298018 C36.9323059,-0.281766006 35.0673471,-0.281766006 33.8763042,0.845298018 L16.8798726,17.8309774 C15.7067091,19.0033988 15.7067091,20.9042885 16.8798726,22.0767103 C17.4437612,22.6388677 18.2070741,22.95637 19.0047703,22.95637 Z M35.9998266,7.21320967 L45.7440988,16.9513176 L42.0100551,16.9513176 C40.3500216,16.9513176 39.0049409,18.2955478 39.0049409,19.9531565 L39.0049409,67.994948 L32.9960877,67.994948 L32.9960877,19.9531565 C32.9960877,18.2955478 31.6510066,16.9513176 29.9909731,16.9513176 L26.2569294,16.9513176 L35.9998266,7.21320967 Z" id="Shape"></path>
                    <path d="M128.004508,22.95637 L135.986733,22.95637 L135.986733,70.9967868 C135.986733,72.6557698 137.331773,74 138.991757,74 L151.009103,74 C152.667711,74 154.012752,72.6557698 154.012752,70.9967868 L154.012752,22.95637 L161.996351,22.95637 C163.65496,22.9549953 165,21.6107654 165,19.9531565 C165,19.1559648 164.682306,18.3931352 164.11981,17.8309774 L147.123888,0.845298018 C145.932881,-0.281766006 144.067978,-0.281766006 142.875596,0.845298018 L125.879674,17.8309774 C124.706546,19.0033988 124.706546,20.9042885 125.88105,22.0767103 C126.443546,22.6388677 127.208211,22.9549953 128.004508,22.95637 Z M145.00043,7.21320967 L154.743034,16.9513176 L151.009103,16.9513176 C149.349119,16.9513176 148.004078,18.2955478 148.004078,19.9531565 L148.004078,67.994948 L141.995406,67.994948 L141.995406,19.9531565 C141.995406,18.2955478 140.650365,16.9513176 138.991757,16.9513176 L135.25645,16.9513176 L145.00043,7.21320967 Z" id="Shape"></path>
                    <path d="M147.816482,149.698481 C143.240112,149.698481 138.93026,149.907912 135.001541,150.274068 C145.330826,125.591801 133.783569,97.173075 109.20871,86.8000322 C84.6338501,76.4256022 56.3401719,88.0233271 46.0108872,112.705594 C40.9829561,124.719406 40.9829561,138.260256 46.0108872,150.274068 C42.071121,149.907912 37.7598877,149.698481 33.1835176,149.698481 C25.3978882,149.698481 0,150.355899 0,158.78859 L0,170.907811 C0,179.339116 25.3978882,179.996532 33.1835176,179.996532 C40.2510681,179.996532 61.7754746,179.433429 65.6903837,173.028466 C80.9357451,182.323845 100.064255,182.323845 115.309616,173.028466 C119.224525,179.433429 140.748932,179.996532 147.816482,179.996532 C155.603493,179.996532 181,179.339116 181,170.907811 L181,158.78859 C181,150.355899 155.602112,149.698481 147.816482,149.698481 L147.816482,149.698481 Z M174.966759,170.189367 C173.067993,171.14498 171.032517,171.798236 168.933518,172.125558 L168.933518,166.193548 C170.984184,165.820456 173.000328,165.286479 174.966759,164.593001 L174.966759,170.189367 Z M162.900276,167.092295 L162.900276,173.092266 C161.08989,173.312792 159.06546,173.504192 156.867035,173.649822 L156.867035,167.590212 C158.800323,167.490351 160.842705,167.319756 162.900276,167.092295 L162.900276,167.092295 Z M147.816482,155.758091 C156.461044,155.448801 165.101463,156.470987 173.436699,158.78859 C165.101463,161.106193 156.461044,162.12838 147.816482,161.817702 C141.560913,161.85931 135.312248,161.405776 129.128487,160.459872 C130.01918,159.26709 130.853256,158.034086 131.629333,156.760861 C136.996971,156.060448 142.404656,155.724805 147.816482,155.758091 L147.816482,155.758091 Z M120.666206,169.301716 C122.056793,168.193538 123.385239,167.010465 124.646019,165.756657 C125.300575,165.905061 125.988274,166.0604 126.699448,166.181065 L126.699448,172.12001 C124.600449,171.792689 122.564972,171.139432 120.666206,170.18382 L120.666206,169.301716 Z M132.73407,167.068717 C134.649407,167.286469 136.654503,167.462612 138.767311,167.592986 L138.767311,173.652596 C136.567505,173.506966 134.543076,173.315566 132.73407,173.09504 L132.73407,167.068717 Z M33.1835176,155.758091 C38.5953445,155.724805 44.0030288,156.060448 49.3706665,156.760861 C50.1495056,158.038247 50.9822007,159.271251 51.8715135,160.459872 C45.6877517,161.405776 39.4390869,161.85931 33.1835176,161.817702 C24.5389555,162.12838 15.8985366,161.106193 7.563301,158.78859 C15.8985366,156.4696 24.5389555,155.448801 33.1835176,155.758091 L33.1835176,155.758091 Z M60.3337937,170.189367 C58.4350281,171.14498 56.3995512,171.798236 54.3005522,172.125558 L54.3005522,166.171356 C55.0117263,166.035435 55.6994248,165.895352 56.3539809,165.746948 C57.6147612,167.00353 58.9432068,168.190764 60.3337937,169.301716 L60.3337937,170.189367 Z M48.267311,167.068717 L48.267311,173.092266 C46.4417344,173.312792 44.4324951,173.504192 42.2340698,173.649822 L42.2340698,167.590212 C44.345497,167.462612 46.3505935,167.286469 48.267311,167.068717 L48.267311,167.068717 Z M6.03324118,164.593001 C7.99967185,165.286479 10.0171968,165.820456 12.0664824,166.193548 L12.0664824,172.12001 C9.96748334,171.792689 7.93200684,171.139432 6.03324118,170.18382 L6.03324118,164.593001 Z M18.0997239,167.092295 C20.1572951,167.319756 22.1996765,167.490351 24.1329651,167.605469 L24.1329651,173.665079 C21.9345398,173.519449 19.9253005,173.328049 18.0997239,173.107523 L18.0997239,167.092295 Z M30.1662063,173.906409 L30.1662063,167.846799 C31.3220366,167.86899 32.3660127,167.880086 33.1835176,167.880086 C34.1998751,167.880086 35.2010423,167.86483 36.1994478,167.844025 L36.1994478,173.903635 C35.223137,173.925827 34.2150649,173.934149 33.1835176,173.934149 C32.15197,173.934149 31.1438979,173.936922 30.1662063,173.906409 Z M48.267311,131.51965 C48.267311,108.092579 67.1748733,89.1009917 90.5,89.1009917 C113.825127,89.1009917 132.73407,108.092579 132.73407,131.51965 C132.73407,154.946722 113.825127,173.936922 90.5,173.936922 C67.1859206,173.911957 48.2921678,154.935627 48.267311,131.51965 Z M144.800552,173.906409 L144.800552,167.846799 C145.798958,167.86899 146.800125,167.884247 147.816482,167.884247 C148.633987,167.884247 149.677963,167.884247 150.833794,167.85096 L150.833794,173.91057 C149.856102,173.931374 148.84803,173.939696 147.816482,173.939696 C146.784935,173.939696 145.776863,173.936922 144.800552,173.906409 Z" id="Shape"></path>
                </g>
            </g>
        </g>
    </g>
</svg>