<?xml version="1.0" encoding="UTF-8"?>
<svg width="336px" height="336px" viewBox="0 0 336 336" version="1.1" xmlns="http://www.w3.org/2000/svg" xmlns:xlink="http://www.w3.org/1999/xlink">
    <!-- Generator: Sketch 63.1 (92452) - https://sketch.com -->
    <title>basis-cash-logo</title>
    <desc>Created with Sketch.</desc>
    <defs>
        <linearGradient x1="50%" y1="0%" x2="50%" y2="100%" id="linearGradient-1">
            <stop stop-color="#DBC087" offset="0%"></stop>
            <stop stop-color="#DB9604" offset="100%"></stop>
        </linearGradient>
    </defs>
    <g id="Page-1" stroke="none" stroke-width="1" fill="none" fill-rule="evenodd">
        <g id="Artboard" transform="translate(-37.000000, -21.000000)">
            <g id="basis-cash-logo" transform="translate(46.000000, 30.000000)">
                <path d="M81,20.4145 C32.6488,47.6865 0,99.53 0,159 C0,246.813 71.187,318 159,318 C246.813,318 318,246.813 318,159 C318,71.187 246.813,0 159,0 C130.656,0 104.045,7.4164 81,20.4145 Z" id="Shape" stroke="url(#linearGradient-1)" stroke-width="18"></path>
                <g id="money-svgrepo-com" transform="translate(54.000000, 91.000000)" fill="#DBAB46" fill-rule="nonzero">
                    <path d="M186.143,0.684 L47.186,0.684 C34.102,0.684 23.46,10.418 23.46,22.384 L23.46,24.286 C10.5,24.421 0,34.091 0,45.973 L0,113.484 C0,125.45 10.644,135.184 23.726,135.184 L162.683,135.184 C175.765,135.184 186.409,125.45 186.409,113.484 L186.409,111.582 C199.366,111.45 209.869001,101.78 209.869001,89.895 L209.869001,22.385 C209.872,10.419 199.225,0.684 186.143,0.684 Z M171.195,113.484 C171.195,116.999 167.299,119.966 162.686,119.966 L23.729,119.966 C19.116,119.966 15.22,116.999 15.22,113.484 L15.22,45.974 C15.22,42.461 19.118,39.492 23.729,39.492 L162.686,39.492 C167.299,39.492 171.195,42.462 171.195,45.974 L171.195,113.484 Z M186.412,96.356 L186.412,45.973 C186.412,34.007 175.768,24.273 162.686,24.273 L38.677,24.273 L38.677,22.384 C38.677,18.871 42.575,15.902 47.186,15.902 L186.143,15.902 C190.756,15.902 194.652,18.872 194.652,22.384 L194.652,89.895 L194.655,89.895 C194.655,93.339 190.904,96.242 186.412,96.356 Z" id="Shape"></path>
                    <path d="M93.479,74.028 C87.075,73.265 83.824,72.352 83.824,69.47 C83.824,65.006 90.286,64.524 93.066,64.524 C97.157,64.524 101.681,66.502 103.155,68.934 L103.741,69.905 L113.087,65.581 L112.516,64.417 C109.227,57.699 103.396,55.67 98.894,54.845 L98.894,48.9 L87.962,48.9 L87.962,54.814 C78.335,56.313 72.626,61.735 72.626,69.468 C72.626,82.192 84.561,83.526 92.451,84.411 C99.623,85.258 102.966,86.98 102.966,89.828 C102.966,95.337 95.185,95.765 92.798,95.765 C87.447,95.765 82.293,93.115 80.812,89.597 L80.317,88.428 L70.177,92.724 L70.677,93.893 C73.53,100.573 79.645,104.786 87.959,105.836 L87.959,112.245 L98.89,112.245 L98.89,105.516 C106.869,104.532 114.556001,99.429 114.556001,89.825 C114.559,76.628 101.876,75.065 93.479,74.028 Z" id="Path"></path>
                </g>
            </g>
        </g>
    </g>
</svg>